<svg version="1" xmlns="http://www.w3.org/2000/svg" width="346.667" height="346.667" viewBox="0 0 260.000000 260.000000"><path d="M115.1 51.2c-.5 1.3-14.5 36.3-31.1 77.8s-30.4 76.1-30.7 76.7c-.4 1 3.3 1.3 16.4 1.3h16.9l6.1-15.3 6.1-15.2h61.3l6.3 15 6.2 15 17.2.3 17.1.2-7.5-18.2c-4.1-10.1-18.6-45.5-32.2-78.8l-24.8-60.5-13.2-.3c-13-.3-13.2-.2-14.1 2zm24.3 74.2c4.7 11.5 8.6 21 8.6 21.2 0 .2-8.3.4-18.5.4s-18.5-.2-18.5-.5 3.6-9.6 8.1-20.7c4.5-11.2 8.6-21.4 9.1-22.8 1-2.4 1-2.4 1.8-.5.4 1.1 4.7 11.4 9.4 22.9z"/></svg>